<?xml version="1.0" encoding="UTF-8"?>
<svg version="1.1" xmlns="http://www.w3.org/2000/svg" width="167" height="224">
<path d="M0 0 C4.78416422 1.45209253 9.14393392 3.45478696 13.57836914 5.73120117 C14.3124852 6.1037352 15.04660126 6.47626923 15.80296326 6.86009216 C17.38830243 7.66488816 18.97276835 8.47140623 20.55644417 9.27947044 C23.06344422 10.55738826 25.57379159 11.82847951 28.08531189 13.0974884 C35.22285273 16.70435781 42.35757239 20.31662737 49.48168945 23.94995117 C53.8462479 26.17527758 58.21749653 28.3869351 62.5934124 30.58983803 C64.25817792 31.43120114 65.92035522 32.27770582 67.57985115 33.12941551 C69.89729206 34.31820111 72.22284239 35.48940928 74.55102539 36.65698242 C75.23427887 37.01276367 75.91753235 37.36854492 76.62149048 37.73510742 C79.31512722 39.06770666 81.45005468 40.01332746 84.48455811 39.93978882 C88.00896069 38.62304438 91.34900815 37.01282554 94.69604492 35.30639648 C95.45434097 34.92586121 96.21263702 34.54532593 96.99391174 34.15325928 C99.49221182 32.89798108 101.98623709 31.63443361 104.48046875 30.37109375 C106.21698952 29.49749484 107.95383613 28.62454334 109.69099426 27.75221252 C114.25806167 25.45729433 118.82182447 23.15588916 123.38458252 20.85241699 C130.69806707 17.16055891 138.0145695 13.47473949 145.33474159 9.79615974 C147.89472448 8.50779194 150.45209087 7.21433391 153.00932312 5.92051697 C154.57015668 5.13487241 156.13108974 4.3494255 157.69213867 3.56420898 C158.4064505 3.20110123 159.12076233 2.83799347 159.85671997 2.46388245 C164.77252279 0 164.77252279 0 167 0 C167 14.19 167 28.38 167 43 C160.73 46.3 154.46 49.6 148 53 C142.28552563 56.11601206 142.28552563 56.11601206 136.5769043 59.24272156 C131.87502157 61.81425317 127.13571107 64.31447457 122.39024353 66.80446911 C118.81539068 68.68341003 115.26014626 70.58844171 111.73339844 72.55639648 C87.07387973 86.2722105 87.07387973 86.2722105 78.93408203 84.49267578 C74.81529109 82.88460744 71.35770703 80.40196137 67.78234863 77.83535767 C62.59650413 74.41455003 56.91025125 71.88301259 51.32109833 69.19370079 C47.73947758 67.4585105 44.18531506 65.6689535 40.62890625 63.8828125 C39.17863805 63.15639606 37.72827943 62.43016012 36.27783203 61.70410156 C35.55442627 61.34183472 34.83102051 60.97956787 34.08569336 60.60632324 C31.10191756 59.11311728 28.11664437 57.62291779 25.13139153 56.13266754 C22.25176331 54.69465232 19.37308248 53.25474916 16.49469376 51.81425476 C15.12260417 51.12787666 13.7502177 50.44209168 12.37752914 49.75691223 C10.47971836 48.80926865 8.5831973 47.8590935 6.68701172 46.90820312 C5.07087479 46.09953796 5.07087479 46.09953796 3.42208862 45.27453613 C1 44 1 44 0 43 C-0.09268999 41.64905018 -0.11747326 40.29332909 -0.11352539 38.93920898 C-0.11344986 38.07839218 -0.11337433 37.21757538 -0.11329651 36.33067322 C-0.10813522 35.39526199 -0.10297394 34.45985077 -0.09765625 33.49609375 C-0.0962413 32.54307877 -0.09482635 31.59006378 -0.09336853 30.60816956 C-0.08775152 27.55124835 -0.07519616 24.49439923 -0.0625 21.4375 C-0.05748719 19.37044376 -0.05292391 17.30338638 -0.04882812 15.23632812 C-0.03777656 10.15752412 -0.02050055 5.0787743 0 0 Z " fill="#5808DB" transform="translate(0,125)"/>
<path d="M0 0 C0.7601944 0.37892899 1.52038879 0.75785797 2.30361938 1.14826965 C4.79798198 2.3946479 7.28493586 3.65509162 9.77197266 4.91601562 C11.50794213 5.78739671 13.24432758 6.65794955 14.98110962 7.52770996 C18.61024792 9.34760698 22.2360885 11.1738518 25.859375 13.00537109 C30.51270134 15.35755823 35.17118141 17.69929615 39.83177757 20.03704071 C44.27174976 22.26440447 48.7096123 24.49595399 53.14697266 26.72851562 C53.99738506 27.15617722 54.84779747 27.58383881 55.72397995 28.02445984 C58.11661825 29.22888304 60.50778733 30.4361676 62.8984375 31.64453125 C63.61320251 32.00404373 64.32796753 32.36355621 65.06439209 32.73396301 C69.94590578 35.20713625 69.94590578 35.20713625 71.06103516 36.32226562 C71.15372514 37.67321545 71.17850842 39.02893653 71.17456055 40.38305664 C71.17448502 41.24387344 71.17440948 42.10469025 71.17433167 42.99159241 C71.16917038 43.92700363 71.16400909 44.86241486 71.15869141 45.82617188 C71.15656898 47.25569435 71.15656898 47.25569435 71.15440369 48.71409607 C71.14878668 51.77101728 71.13623131 54.82786639 71.12353516 57.88476562 C71.11852235 59.95182186 71.11395906 62.01887924 71.10986328 64.0859375 C71.09881172 69.1647415 71.0815357 74.24349132 71.06103516 79.32226562 C66.27687093 77.87017309 61.91710124 75.86747867 57.48266602 73.59106445 C56.74854996 73.21853043 56.0144339 72.8459964 55.2580719 72.46217346 C53.67273273 71.65737746 52.08826681 70.8508594 50.50459099 70.04279518 C47.99759094 68.76487737 45.48724357 67.49378612 42.97572327 66.22477722 C35.83818243 62.61790782 28.70346276 59.00563826 21.5793457 55.37231445 C17.21478726 53.14698804 12.84353863 50.93533053 8.46762276 48.7324276 C6.80285723 47.89106449 5.14067993 47.04455981 3.48118401 46.19285011 C1.1637431 45.00406451 -1.16180724 43.83285634 -3.48999023 42.6652832 C-4.17324371 42.30950195 -4.85649719 41.9537207 -5.56045532 41.5871582 C-8.25409206 40.25455896 -10.38901952 39.30893816 -13.42352295 39.38247681 C-16.94792553 40.69922125 -20.287973 42.30944008 -23.63500977 44.01586914 C-24.39330582 44.39640442 -25.15160187 44.7769397 -25.93287659 45.16900635 C-28.43117666 46.42428455 -30.92520193 47.68783202 -33.41943359 48.95117188 C-35.15595436 49.82477079 -36.89280097 50.69772228 -38.62995911 51.5700531 C-43.19702651 53.86497129 -47.76078931 56.16637646 -52.32354736 58.46984863 C-59.63703191 62.16170672 -66.95353434 65.84752614 -74.27370644 69.52610588 C-76.83368933 70.81447369 -79.39105571 72.10793172 -81.94828796 73.40174866 C-83.50912152 74.18739321 -85.07005458 74.97284012 -86.63110352 75.75805664 C-87.70257126 76.30271828 -87.70257126 76.30271828 -88.79568481 76.85838318 C-93.71148764 79.32226562 -93.71148764 79.32226562 -95.93896484 79.32226562 C-95.93896484 65.13226563 -95.93896484 50.94226562 -95.93896484 36.32226562 C-81.17165298 28.54999623 -66.38354956 20.84579742 -51.48976517 13.32344532 C-47.95873594 11.53985768 -44.43174287 9.74907744 -40.91259766 7.94213867 C-37.44916864 6.164033 -33.97722958 4.40373212 -30.49855804 2.65564537 C-29.18934265 1.99402443 -27.88322879 1.32622599 -26.58048248 0.65195656 C-24.77009938 -0.28360953 -22.94701723 -1.19447664 -21.12353516 -2.10424805 C-20.09496399 -2.62701828 -19.06639282 -3.14978851 -18.00665283 -3.68840027 C-11.31516199 -5.84641638 -5.88593781 -3.01168374 0 0 Z " fill="#5808DB" transform="translate(95.93896484375,4.677734375)"/>
<path d="M0 0 C3.46381188 1.91387125 6.97979725 3.68924393 10.52700806 5.44210815 C11.19303134 5.77132798 11.85905462 6.10054781 12.54526043 6.439744 C13.92950884 7.12338787 15.31391834 7.80670565 16.69848061 8.48971367 C20.25184526 10.24821348 23.79388754 12.02917557 27.33633423 13.80953979 C28.78262168 14.53577998 30.22891075 15.26201694 31.67520142 15.98825073 C33.13777762 16.72292916 34.60034264 17.45762985 36.06289673 18.19235229 C41.16706683 20.75629324 46.27192359 23.31884937 51.37844849 25.87809753 C53.40397737 26.89408858 55.42828457 27.91248471 57.45254517 28.93099976 C58.68458285 29.54883324 59.9166761 30.16655593 61.14883423 30.78414917 C62.75830933 31.59281433 62.75830933 31.59281433 64.40029907 32.41781616 C67.07154484 33.76433184 67.07154484 33.76433184 70.06289673 34.69235229 C70.06289673 35.35235229 70.06289673 36.01235229 70.06289673 36.69235229 C69.24111938 36.98625854 69.24111938 36.98625854 68.40274048 37.28610229 C63.03877415 39.30958228 57.97556351 41.71375333 52.93789673 44.44235229 C51.99514893 44.9497998 51.99514893 44.9497998 51.03335571 45.46749878 C48.33149225 46.92328653 45.6310757 48.38135594 42.93887329 49.85494995 C40.82267081 51.00631409 38.69454884 52.13240501 36.56289673 53.25485229 C35.91691528 53.61353394 35.27093384 53.97221558 34.6053772 54.34176636 C29.8988432 56.78580136 27.1738795 56.7982062 22.06289673 55.69235229 C19.33770636 54.64827057 16.76670931 53.36149471 14.17153931 52.03048706 C13.41616379 51.65316437 12.66078827 51.27584167 11.88252258 50.88708496 C9.40262734 49.64540475 6.93011081 48.38973146 4.45742798 47.13375854 C2.72867539 46.26471455 0.99947613 45.39655858 -0.73014832 44.5292511 C-5.27206427 42.24877212 -9.80784776 39.95635043 -14.34243774 37.66134644 C-18.95825064 35.3278714 -23.57973647 33.00569068 -28.20077515 30.68258667 C-35.66007676 26.93097311 -43.11579515 23.17234993 -50.56719971 19.40507507 C-53.68730817 17.8277232 -56.80801459 16.25182905 -59.93710327 14.69235229 C-59.10694702 14.27727417 -58.27679077 13.86219604 -57.42147827 13.43453979 C-56.84421997 13.14442017 -56.26696167 12.85430054 -55.67221069 12.5553894 C-54.3151301 11.8799368 -52.95302109 11.21451842 -51.58676147 10.55783081 C-47.28845843 8.46771315 -43.13654104 6.24794729 -39.04675293 3.77011108 C-36.69230747 2.35816292 -34.3045192 1.00880915 -31.91159058 -0.3366394 C-30.73438504 -1.01747899 -29.57186047 -1.72446033 -28.42697144 -2.45834351 C-17.04520557 -9.71680488 -10.62786039 -6.03522273 0 0 Z " fill="#5B0CDC" transform="translate(77.93710327148438,79.30764770507813)"/>
<path d="M0 0 C0.33 0 0.66 0 1 0 C1 6.27 1 12.54 1 19 C2.32 19.33 3.64 19.66 5 20 C3.35 20.66 1.7 21.32 0 22 C-0.66 21.34 -1.32 20.68 -2 20 C-1.34 20 -0.68 20 0 20 C0 13.4 0 6.8 0 0 Z " fill="#6F2AE0" transform="translate(83,188)"/>
<path d="M0 0 C3 1 3 1 3 1 Z " fill="#FDFCFE" transform="translate(82,164)"/>
<path d="M0 0 C3 1 3 1 3 1 Z " fill="#FDFCFE" transform="translate(82,44)"/>
<path d="M0 0 C2 1 2 1 2 1 Z " fill="#FDFCFF" transform="translate(84,210)"/>
<path d="M0 0 C2 1 2 1 2 1 Z " fill="#FEFDFE" transform="translate(81,210)"/>
<path d="M0 0 C2 1 2 1 2 1 Z " fill="#FDFCFF" transform="translate(86,209)"/>
<path d="M0 0 C2 1 2 1 2 1 Z " fill="#FDFCFE" transform="translate(79,209)"/>
<path d="M0 0 C2 1 2 1 2 1 Z " fill="#FDFCFF" transform="translate(88,208)"/>
<path d="M0 0 C2 1 2 1 2 1 Z " fill="#FDFCFE" transform="translate(77,208)"/>
<path d="M0 0 C2 1 2 1 2 1 Z " fill="#FDFCFF" transform="translate(90,207)"/>
<path d="M0 0 C2 1 2 1 2 1 Z " fill="#FDFCFE" transform="translate(75,207)"/>
<path d="M0 0 C2 1 2 1 2 1 Z " fill="#FDFCFF" transform="translate(92,206)"/>
<path d="M0 0 C2 1 2 1 2 1 Z " fill="#FDFCFE" transform="translate(73,206)"/>
<path d="M0 0 C2 1 2 1 2 1 Z " fill="#FDFCFF" transform="translate(94,205)"/>
<path d="M0 0 C2 1 2 1 2 1 Z " fill="#FDFCFE" transform="translate(71,205)"/>
<path d="M0 0 C2 1 2 1 2 1 Z " fill="#FDFCFF" transform="translate(96,204)"/>
<path d="M0 0 C2 1 2 1 2 1 Z " fill="#FDFCFE" transform="translate(69,204)"/>
<path d="M0 0 C2 1 2 1 2 1 Z " fill="#FDFCFF" transform="translate(98,203)"/>
<path d="M0 0 C2 1 2 1 2 1 Z " fill="#FDFCFE" transform="translate(67,203)"/>
<path d="M0 0 C2 1 2 1 2 1 Z " fill="#FDFDFF" transform="translate(100,202)"/>
<path d="M0 0 C2 1 2 1 2 1 Z " fill="#FDFCFE" transform="translate(65,202)"/>
<path d="M0 0 C2 1 2 1 2 1 Z " fill="#FDFCFF" transform="translate(102,201)"/>
<path d="M0 0 C2 1 2 1 2 1 Z " fill="#FDFCFE" transform="translate(63,201)"/>
<path d="M0 0 C2 1 2 1 2 1 Z " fill="#FDFDFF" transform="translate(104,200)"/>
<path d="M0 0 C2 1 2 1 2 1 Z " fill="#FDFCFE" transform="translate(61,200)"/>
<path d="M0 0 C2 1 2 1 2 1 Z " fill="#FDFCFF" transform="translate(106,199)"/>
<path d="M0 0 C2 1 2 1 2 1 Z " fill="#FDFCFE" transform="translate(59,199)"/>
<path d="M0 0 C2 1 2 1 2 1 Z " fill="#FDFDFF" transform="translate(108,198)"/>
<path d="M0 0 C2 1 2 1 2 1 Z " fill="#FDFCFE" transform="translate(57,198)"/>
<path d="M0 0 C2 1 2 1 2 1 Z " fill="#FDFCFF" transform="translate(110,197)"/>
<path d="M0 0 C2 1 2 1 2 1 Z " fill="#FDFCFE" transform="translate(55,197)"/>
<path d="M0 0 C2 1 2 1 2 1 Z " fill="#FDFDFF" transform="translate(112,196)"/>
<path d="M0 0 C2 1 2 1 2 1 Z " fill="#FDFCFE" transform="translate(53,196)"/>
<path d="M0 0 C2 1 2 1 2 1 Z " fill="#FDFCFF" transform="translate(114,195)"/>
<path d="M0 0 C2 1 2 1 2 1 Z " fill="#FDFCFE" transform="translate(51,195)"/>
<path d="M0 0 C2 1 2 1 2 1 Z " fill="#FDFDFF" transform="translate(116,194)"/>
<path d="M0 0 C2 1 2 1 2 1 Z " fill="#FDFCFE" transform="translate(49,194)"/>
<path d="M0 0 C2 1 2 1 2 1 Z " fill="#FDFCFF" transform="translate(118,193)"/>
<path d="M0 0 C2 1 2 1 2 1 Z " fill="#FDFCFE" transform="translate(47,193)"/>
<path d="M0 0 C2 1 2 1 2 1 Z " fill="#FDFDFF" transform="translate(120,192)"/>
<path d="M0 0 C2 1 2 1 2 1 Z " fill="#FDFCFE" transform="translate(45,192)"/>
<path d="M0 0 C2 1 2 1 2 1 Z " fill="#FDFCFF" transform="translate(122,191)"/>
<path d="M0 0 C2 1 2 1 2 1 Z " fill="#FDFCFF" transform="translate(43,191)"/>
<path d="M0 0 C2 1 2 1 2 1 Z " fill="#FDFDFF" transform="translate(124,190)"/>
<path d="M0 0 C2 1 2 1 2 1 Z " fill="#FDFCFE" transform="translate(41,190)"/>
<path d="M0 0 C2 1 2 1 2 1 Z " fill="#FDFCFF" transform="translate(126,189)"/>
<path d="M0 0 C2 1 2 1 2 1 Z " fill="#FDFCFF" transform="translate(39,189)"/>
<path d="M0 0 C2 1 2 1 2 1 Z " fill="#FDFDFF" transform="translate(128,188)"/>
<path d="M0 0 C2 1 2 1 2 1 Z " fill="#FDFCFF" transform="translate(37,188)"/>
<path d="M0 0 C2 1 2 1 2 1 Z " fill="#FDFDFF" transform="translate(130,187)"/>
<path d="M0 0 C2 1 2 1 2 1 Z " fill="#FDFCFF" transform="translate(35,187)"/>
<path d="M0 0 C2 1 2 1 2 1 Z " fill="#FDFDFF" transform="translate(132,186)"/>
<path d="M0 0 C2 1 2 1 2 1 Z " fill="#FDFCFF" transform="translate(33,186)"/>
<path d="M0 0 C2 1 2 1 2 1 Z " fill="#FDFDFF" transform="translate(134,185)"/>
<path d="M0 0 C2 1 2 1 2 1 Z " fill="#FDFDFF" transform="translate(31,185)"/>
<path d="M0 0 C2 1 2 1 2 1 Z " fill="#FDFDFE" transform="translate(136,184)"/>
<path d="M0 0 C2 1 2 1 2 1 Z " fill="#FDFCFF" transform="translate(29,184)"/>
<path d="M0 0 C2 1 2 1 2 1 Z " fill="#FDFDFF" transform="translate(138,183)"/>
<path d="M0 0 C2 1 2 1 2 1 Z " fill="#FDFDFF" transform="translate(27,183)"/>
<path d="M0 0 C2 1 2 1 2 1 Z " fill="#FDFDFE" transform="translate(140,182)"/>
<path d="M0 0 C2 1 2 1 2 1 Z " fill="#FDFDFF" transform="translate(25,182)"/>
<path d="M0 0 C2 1 2 1 2 1 Z " fill="#FDFDFE" transform="translate(142,181)"/>
<path d="M0 0 C2 1 2 1 2 1 Z " fill="#FDFDFF" transform="translate(23,181)"/>
<path d="M0 0 C2 1 2 1 2 1 Z " fill="#FDFDFF" transform="translate(144,180)"/>
<path d="M0 0 C2 1 2 1 2 1 Z " fill="#FDFDFF" transform="translate(21,180)"/>
<path d="M0 0 C2 1 2 1 2 1 Z " fill="#FDFDFF" transform="translate(146,179)"/>
<path d="M0 0 C2 1 2 1 2 1 Z " fill="#FDFDFF" transform="translate(19,179)"/>
<path d="M0 0 C2 1 2 1 2 1 Z " fill="#FDFDFE" transform="translate(148,178)"/>
<path d="M0 0 C2 1 2 1 2 1 Z " fill="#FDFDFF" transform="translate(17,178)"/>
<path d="M0 0 C2 1 2 1 2 1 Z " fill="#FDFDFF" transform="translate(150,177)"/>
<path d="M0 0 C2 1 2 1 2 1 Z " fill="#FDFDFF" transform="translate(15,177)"/>
<path d="M0 0 C2 1 2 1 2 1 Z " fill="#FDFDFE" transform="translate(152,176)"/>
<path d="M0 0 C2 1 2 1 2 1 Z " fill="#FDFCFF" transform="translate(13,176)"/>
<path d="M0 0 C2 1 2 1 2 1 Z " fill="#FDFDFE" transform="translate(154,175)"/>
<path d="M0 0 C2 1 2 1 2 1 Z " fill="#FDFDFF" transform="translate(11,175)"/>
<path d="M0 0 C2 1 2 1 2 1 Z " fill="#FDFDFE" transform="translate(156,174)"/>
<path d="M0 0 C2 1 2 1 2 1 Z " fill="#FDFCFF" transform="translate(9,174)"/>
<path d="M0 0 C2 1 2 1 2 1 Z " fill="#FDFDFE" transform="translate(158,173)"/>
<path d="M0 0 C2 1 2 1 2 1 Z " fill="#FDFDFF" transform="translate(7,173)"/>
<path d="M0 0 C2 1 2 1 2 1 Z " fill="#FDFCFE" transform="translate(160,172)"/>
<path d="M0 0 C2 1 2 1 2 1 Z " fill="#FDFCFF" transform="translate(5,172)"/>
<path d="M0 0 C2 1 2 1 2 1 Z " fill="#FDFDFE" transform="translate(162,171)"/>
<path d="M0 0 C2 1 2 1 2 1 Z " fill="#FDFDFF" transform="translate(3,171)"/>
<path d="M0 0 C2 1 2 1 2 1 Z " fill="#FDFCFE" transform="translate(164,170)"/>
<path d="M0 0 C2 1 2 1 2 1 Z " fill="#FDFCFF" transform="translate(1,170)"/>
<path d="M0 0 C2 1 2 1 2 1 Z " fill="#FDFDFF" transform="translate(85,163)"/>
<path d="M0 0 C2 1 2 1 2 1 Z " fill="#FDFDFE" transform="translate(80,163)"/>
<path d="M0 0 C2 1 2 1 2 1 Z " fill="#FDFCFF" transform="translate(87,162)"/>
<path d="M0 0 C2 1 2 1 2 1 Z " fill="#FDFCFE" transform="translate(78,162)"/>
<path d="M0 0 C2 1 2 1 2 1 Z " fill="#FDFDFF" transform="translate(89,161)"/>
<path d="M0 0 C2 1 2 1 2 1 Z " fill="#FDFDFE" transform="translate(76,161)"/>
<path d="M0 0 C2 1 2 1 2 1 Z " fill="#FDFCFF" transform="translate(91,160)"/>
<path d="M0 0 C2 1 2 1 2 1 Z " fill="#FDFDFE" transform="translate(74,160)"/>
<path d="M0 0 C2 1 2 1 2 1 Z " fill="#FDFDFF" transform="translate(93,159)"/>
<path d="M0 0 C2 1 2 1 2 1 Z " fill="#FDFDFE" transform="translate(72,159)"/>
<path d="M0 0 C2 1 2 1 2 1 Z " fill="#FDFCFF" transform="translate(95,158)"/>
<path d="M0 0 C2 1 2 1 2 1 Z " fill="#FDFDFE" transform="translate(70,158)"/>
<path d="M0 0 C2 1 2 1 2 1 Z " fill="#FDFDFF" transform="translate(97,157)"/>
<path d="M0 0 C2 1 2 1 2 1 Z " fill="#FDFDFE" transform="translate(68,157)"/>
<path d="M0 0 C2 1 2 1 2 1 Z " fill="#FDFDFF" transform="translate(99,156)"/>
<path d="M0 0 C2 1 2 1 2 1 Z " fill="#FDFDFE" transform="translate(66,156)"/>
<path d="M0 0 C2 1 2 1 2 1 Z " fill="#FDFDFF" transform="translate(101,155)"/>
<path d="M0 0 C2 1 2 1 2 1 Z " fill="#FDFDFF" transform="translate(64,155)"/>
<path d="M0 0 C2 1 2 1 2 1 Z " fill="#FDFDFF" transform="translate(103,154)"/>
<path d="M0 0 C2 1 2 1 2 1 Z " fill="#FDFDFE" transform="translate(62,154)"/>
<path d="M0 0 C2 1 2 1 2 1 Z " fill="#FDFDFF" transform="translate(105,153)"/>
<path d="M0 0 C2 1 2 1 2 1 Z " fill="#FDFDFF" transform="translate(60,153)"/>
<path d="M0 0 C2 1 2 1 2 1 Z " fill="#FDFCFF" transform="translate(107,152)"/>
<path d="M0 0 C2 1 2 1 2 1 Z " fill="#FDFDFF" transform="translate(58,152)"/>
<path d="M0 0 C2 1 2 1 2 1 Z " fill="#FDFDFF" transform="translate(109,151)"/>
<path d="M0 0 C2 1 2 1 2 1 Z " fill="#FDFDFF" transform="translate(56,151)"/>
<path d="M0 0 C2 1 2 1 2 1 Z " fill="#FDFCFF" transform="translate(111,150)"/>
<path d="M0 0 C2 1 2 1 2 1 Z " fill="#FDFDFF" transform="translate(54,150)"/>
<path d="M0 0 C2 1 2 1 2 1 Z " fill="#FDFDFF" transform="translate(113,149)"/>
<path d="M0 0 C2 1 2 1 2 1 Z " fill="#FDFDFF" transform="translate(52,149)"/>
<path d="M0 0 C2 1 2 1 2 1 Z " fill="#FDFDFF" transform="translate(115,148)"/>
<path d="M0 0 C2 1 2 1 2 1 Z " fill="#FDFDFF" transform="translate(50,148)"/>
<path d="M0 0 C2 1 2 1 2 1 Z " fill="#FDFCFF" transform="translate(117,147)"/>
<path d="M0 0 C2 1 2 1 2 1 Z " fill="#FDFCFF" transform="translate(48,147)"/>
<path d="M0 0 C2 1 2 1 2 1 Z " fill="#FDFDFF" transform="translate(119,146)"/>
<path d="M0 0 C2 1 2 1 2 1 Z " fill="#FDFDFF" transform="translate(46,146)"/>
<path d="M0 0 C2 1 2 1 2 1 Z " fill="#FDFCFF" transform="translate(121,145)"/>
<path d="M0 0 C2 1 2 1 2 1 Z " fill="#FDFCFF" transform="translate(44,145)"/>
<path d="M0 0 C2 1 2 1 2 1 Z " fill="#FDFCFF" transform="translate(123,144)"/>
<path d="M0 0 C2 1 2 1 2 1 Z " fill="#FDFDFF" transform="translate(42,144)"/>
<path d="M0 0 C2 1 2 1 2 1 Z " fill="#FDFCFF" transform="translate(125,143)"/>
<path d="M0 0 C2 1 2 1 2 1 Z " fill="#FDFCFF" transform="translate(40,143)"/>
<path d="M0 0 C2 1 2 1 2 1 Z " fill="#FDFCFE" transform="translate(127,142)"/>
<path d="M0 0 C2 1 2 1 2 1 Z " fill="#FDFDFF" transform="translate(38,142)"/>
<path d="M0 0 C2 1 2 1 2 1 Z " fill="#FDFCFF" transform="translate(129,141)"/>
<path d="M0 0 C2 1 2 1 2 1 Z " fill="#FDFCFF" transform="translate(36,141)"/>
<path d="M0 0 C2 1 2 1 2 1 Z " fill="#FDFCFE" transform="translate(131,140)"/>
<path d="M0 0 C2 1 2 1 2 1 Z " fill="#FDFDFF" transform="translate(34,140)"/>
<path d="M0 0 C2 1 2 1 2 1 Z " fill="#FDFCFF" transform="translate(133,139)"/>
<path d="M0 0 C2 1 2 1 2 1 Z " fill="#FDFCFF" transform="translate(32,139)"/>
<path d="M0 0 C2 1 2 1 2 1 Z " fill="#FEFDFF" transform="translate(135,138)"/>
<path d="M0 0 C2 1 2 1 2 1 Z " fill="#FDFDFF" transform="translate(30,138)"/>
<path d="M0 0 C2 1 2 1 2 1 Z " fill="#FDFCFE" transform="translate(137,137)"/>
<path d="M0 0 C2 1 2 1 2 1 Z " fill="#FDFDFF" transform="translate(105,137)"/>
<path d="M0 0 C2 1 2 1 2 1 Z " fill="#FEFDFF" transform="translate(102,137)"/>
<path d="M0 0 C2 1 2 1 2 1 Z " fill="#FDFCFF" transform="translate(28,137)"/>
<path d="M0 0 C2 1 2 1 2 1 Z " fill="#FEFDFE" transform="translate(139,136)"/>
<path d="M0 0 C2 1 2 1 2 1 Z " fill="#FDFCFF" transform="translate(100,136)"/>
<path d="M0 0 C2 1 2 1 2 1 Z " fill="#FDFDFF" transform="translate(26,136)"/>
<path d="M0 0 C2 1 2 1 2 1 Z " fill="#FDFCFF" transform="translate(141,135)"/>
<path d="M0 0 C2 1 2 1 2 1 Z " fill="#FDFCFF" transform="translate(98,135)"/>
<path d="M0 0 C2 1 2 1 2 1 Z " fill="#FDFCFF" transform="translate(24,135)"/>
<path d="M0 0 C2 1 2 1 2 1 Z " fill="#FEFDFE" transform="translate(143,134)"/>
<path d="M0 0 C2 1 2 1 2 1 Z " fill="#FDFCFF" transform="translate(96,134)"/>
<path d="M0 0 C2 1 2 1 2 1 Z " fill="#FDFDFF" transform="translate(22,134)"/>
<path d="M0 0 C2 1 2 1 2 1 Z " fill="#FDFCFE" transform="translate(145,133)"/>
<path d="M0 0 C2 1 2 1 2 1 Z " fill="#FDFCFF" transform="translate(94,133)"/>
<path d="M0 0 C2 1 2 1 2 1 Z " fill="#FDFCFF" transform="translate(20,133)"/>
<path d="M0 0 C2 1 2 1 2 1 Z " fill="#FEFDFE" transform="translate(147,132)"/>
<path d="M0 0 C2 1 2 1 2 1 Z " fill="#FDFCFF" transform="translate(92,132)"/>
<path d="M0 0 C2 1 2 1 2 1 Z " fill="#FDFDFF" transform="translate(18,132)"/>
<path d="M0 0 C2 1 2 1 2 1 Z " fill="#FDFCFE" transform="translate(149,131)"/>
<path d="M0 0 C2 1 2 1 2 1 Z " fill="#FDFDFF" transform="translate(116,131)"/>
<path d="M0 0 C2 1 2 1 2 1 Z " fill="#FDFCFF" transform="translate(90,131)"/>
<path d="M0 0 C2 1 2 1 2 1 Z " fill="#FDFCFF" transform="translate(16,131)"/>
<path d="M0 0 C2 1 2 1 2 1 Z " fill="#FEFDFE" transform="translate(151,130)"/>
<path d="M0 0 C2 1 2 1 2 1 Z " fill="#FDFCFF" transform="translate(88,130)"/>
<path d="M0 0 C2 1 2 1 2 1 Z " fill="#FDFCFF" transform="translate(14,130)"/>
<path d="M0 0 C2 1 2 1 2 1 Z " fill="#FDFCFE" transform="translate(153,129)"/>
<path d="M0 0 C2 1 2 1 2 1 Z " fill="#FEFDFF" transform="translate(120,129)"/>
<path d="M0 0 C2 1 2 1 2 1 Z " fill="#FDFCFF" transform="translate(86,129)"/>
<path d="M0 0 C2 1 2 1 2 1 Z " fill="#FDFCFF" transform="translate(12,129)"/>
<path d="M0 0 C2 1 2 1 2 1 Z " fill="#FEFDFE" transform="translate(155,128)"/>
<path d="M0 0 C2 1 2 1 2 1 Z " fill="#FDFCFF" transform="translate(84,128)"/>
<path d="M0 0 C2 1 2 1 2 1 Z " fill="#FDFCFF" transform="translate(10,128)"/>
<path d="M0 0 C2 1 2 1 2 1 Z " fill="#FDFCFE" transform="translate(157,127)"/>
<path d="M0 0 C2 1 2 1 2 1 Z " fill="#FEFDFF" transform="translate(124,127)"/>
<path d="M0 0 C2 1 2 1 2 1 Z " fill="#FDFCFF" transform="translate(82,127)"/>
<path d="M0 0 C2 1 2 1 2 1 Z " fill="#FDFCFF" transform="translate(8,127)"/>
<path d="M0 0 C2 1 2 1 2 1 Z " fill="#FEFDFE" transform="translate(159,126)"/>
<path d="M0 0 C2 1 2 1 2 1 Z " fill="#FDFCFF" transform="translate(80,126)"/>
<path d="M0 0 C2 1 2 1 2 1 Z " fill="#FDFCFF" transform="translate(6,126)"/>
<path d="M0 0 C2 1 2 1 2 1 Z " fill="#FDFCFE" transform="translate(161,125)"/>
<path d="M0 0 C2 1 2 1 2 1 Z " fill="#FDFDFF" transform="translate(128,125)"/>
<path d="M0 0 C2 1 2 1 2 1 Z " fill="#FDFCFF" transform="translate(78,125)"/>
<path d="M0 0 C2 1 2 1 2 1 Z " fill="#FDFCFF" transform="translate(4,125)"/>
<path d="M0 0 C2 1 2 1 2 1 Z " fill="#FEFDFE" transform="translate(163,124)"/>
<path d="M0 0 C2 1 2 1 2 1 Z " fill="#FDFCFF" transform="translate(76,124)"/>
<path d="M0 0 C2 1 2 1 2 1 Z " fill="#FDFCFF" transform="translate(2,124)"/>
<path d="M0 0 C2 1 2 1 2 1 Z " fill="#FDFCFE" transform="translate(165,123)"/>
<path d="M0 0 C2 1 2 1 2 1 Z " fill="#FEFDFF" transform="translate(132,123)"/>
<path d="M0 0 C2 1 2 1 2 1 Z " fill="#FDFCFF" transform="translate(74,123)"/>
<path d="M0 0 C2 1 2 1 2 1 Z " fill="#FDFCFF" transform="translate(0,123)"/>
<path d="M0 0 C2 1 2 1 2 1 Z " fill="#FEFDFF" transform="translate(134,122)"/>
<path d="M0 0 C2 1 2 1 2 1 Z " fill="#FDFCFF" transform="translate(72,122)"/>
<path d="M0 0 C2 1 2 1 2 1 Z " fill="#FDFCFF" transform="translate(136,121)"/>
<path d="M0 0 C2 1 2 1 2 1 Z " fill="#FDFCFF" transform="translate(70,121)"/>
<path d="M0 0 C2 1 2 1 2 1 Z " fill="#FEFDFF" transform="translate(138,120)"/>
<path d="M0 0 C2 1 2 1 2 1 Z " fill="#FDFCFF" transform="translate(68,120)"/>
<path d="M0 0 C2 1 2 1 2 1 Z " fill="#FDFCFF" transform="translate(140,119)"/>
<path d="M0 0 C2 1 2 1 2 1 Z " fill="#FDFCFE" transform="translate(66,119)"/>
<path d="M0 0 C2 1 2 1 2 1 Z " fill="#FEFDFF" transform="translate(142,118)"/>
<path d="M0 0 C2 1 2 1 2 1 Z " fill="#FDFCFF" transform="translate(64,118)"/>
<path d="M0 0 C2 1 2 1 2 1 Z " fill="#FDFCFF" transform="translate(144,117)"/>
<path d="M0 0 C2 1 2 1 2 1 Z " fill="#FDFCFE" transform="translate(62,117)"/>
<path d="M0 0 C2 1 2 1 2 1 Z " fill="#FDFCFE" transform="translate(60,116)"/>
<path d="M0 0 C2 1 2 1 2 1 Z " fill="#FDFCFF" transform="translate(58,115)"/>
<path d="M0 0 C2 1 2 1 2 1 Z " fill="#FDFDFF" transform="translate(56,114)"/>
<path d="M0 0 C2 1 2 1 2 1 Z " fill="#FDFCFE" transform="translate(54,113)"/>
<path d="M0 0 C2 1 2 1 2 1 Z " fill="#FDFDFF" transform="translate(52,112)"/>
<path d="M0 0 C2 1 2 1 2 1 Z " fill="#FDFDFF" transform="translate(143,111)"/>
<path d="M0 0 C2 1 2 1 2 1 Z " fill="#FDFCFE" transform="translate(50,111)"/>
<path d="M0 0 C2 1 2 1 2 1 Z " fill="#FDFDFF" transform="translate(141,110)"/>
<path d="M0 0 C2 1 2 1 2 1 Z " fill="#FDFDFE" transform="translate(48,110)"/>
<path d="M0 0 C2 1 2 1 2 1 Z " fill="#FDFDFF" transform="translate(139,109)"/>
<path d="M0 0 C2 1 2 1 2 1 Z " fill="#FDFCFE" transform="translate(46,109)"/>
<path d="M0 0 C2 1 2 1 2 1 Z " fill="#FDFDFF" transform="translate(137,108)"/>
<path d="M0 0 C2 1 2 1 2 1 Z " fill="#FDFDFE" transform="translate(44,108)"/>
<path d="M0 0 C2 1 2 1 2 1 Z " fill="#FDFDFF" transform="translate(135,107)"/>
<path d="M0 0 C2 1 2 1 2 1 Z " fill="#FDFCFE" transform="translate(42,107)"/>
<path d="M0 0 C2 1 2 1 2 1 Z " fill="#FDFDFF" transform="translate(133,106)"/>
<path d="M0 0 C2 1 2 1 2 1 Z " fill="#FDFDFE" transform="translate(40,106)"/>
<path d="M0 0 C2 1 2 1 2 1 Z " fill="#FDFDFF" transform="translate(131,105)"/>
<path d="M0 0 C2 1 2 1 2 1 Z " fill="#FDFCFE" transform="translate(38,105)"/>
<path d="M0 0 C2 1 2 1 2 1 Z " fill="#FDFDFF" transform="translate(129,104)"/>
<path d="M0 0 C2 1 2 1 2 1 Z " fill="#FDFDFE" transform="translate(36,104)"/>
<path d="M0 0 C2 1 2 1 2 1 Z " fill="#FDFDFF" transform="translate(127,103)"/>
<path d="M0 0 C2 1 2 1 2 1 Z " fill="#FDFCFE" transform="translate(34,103)"/>
<path d="M0 0 C2 1 2 1 2 1 Z " fill="#FDFDFF" transform="translate(125,102)"/>
<path d="M0 0 C2 1 2 1 2 1 Z " fill="#FDFDFE" transform="translate(32,102)"/>
<path d="M0 0 C2 1 2 1 2 1 Z " fill="#FDFCFF" transform="translate(123,101)"/>
<path d="M0 0 C2 1 2 1 2 1 Z " fill="#FDFCFE" transform="translate(30,101)"/>
<path d="M0 0 C2 1 2 1 2 1 Z " fill="#FDFDFF" transform="translate(121,100)"/>
<path d="M0 0 C2 1 2 1 2 1 Z " fill="#FDFDFE" transform="translate(28,100)"/>
<path d="M0 0 C2 1 2 1 2 1 Z " fill="#FDFCFF" transform="translate(119,99)"/>
<path d="M0 0 C2 1 2 1 2 1 Z " fill="#FDFCFE" transform="translate(26,99)"/>
<path d="M0 0 C2 1 2 1 2 1 Z " fill="#FDFDFF" transform="translate(117,98)"/>
<path d="M0 0 C2 1 2 1 2 1 Z " fill="#FDFDFE" transform="translate(24,98)"/>
<path d="M0 0 C2 1 2 1 2 1 Z " fill="#FDFCFF" transform="translate(115,97)"/>
<path d="M0 0 C2 1 2 1 2 1 Z " fill="#FDFDFE" transform="translate(22,97)"/>
<path d="M0 0 C2 1 2 1 2 1 Z " fill="#FDFDFF" transform="translate(113,96)"/>
<path d="M0 0 C2 1 2 1 2 1 Z " fill="#FDFCFF" transform="translate(111,95)"/>
<path d="M0 0 C2 1 2 1 2 1 Z " fill="#FDFDFF" transform="translate(109,94)"/>
<path d="M0 0 C2 1 2 1 2 1 Z " fill="#FDFCFF" transform="translate(107,93)"/>
<path d="M0 0 C2 1 2 1 2 1 Z " fill="#FDFDFF" transform="translate(105,92)"/>
<path d="M0 0 C2 1 2 1 2 1 Z " fill="#FDFCFF" transform="translate(103,91)"/>
<path d="M0 0 C2 1 2 1 2 1 Z " fill="#FDFDFF" transform="translate(101,90)"/>
<path d="M0 0 C2 1 2 1 2 1 Z " fill="#FDFCFE" transform="translate(22,90)"/>
<path d="M0 0 C2 1 2 1 2 1 Z " fill="#FDFCFF" transform="translate(99,89)"/>
<path d="M0 0 C2 1 2 1 2 1 Z " fill="#FDFDFE" transform="translate(24,89)"/>
<path d="M0 0 C2 1 2 1 2 1 Z " fill="#FDFCFF" transform="translate(97,88)"/>
<path d="M0 0 C2 1 2 1 2 1 Z " fill="#FDFCFE" transform="translate(26,88)"/>
<path d="M0 0 C2 1 2 1 2 1 Z " fill="#FDFCFF" transform="translate(95,87)"/>
<path d="M0 0 C2 1 2 1 2 1 Z " fill="#FDFDFE" transform="translate(28,87)"/>
<path d="M0 0 C2 1 2 1 2 1 Z " fill="#FDFCFF" transform="translate(93,86)"/>
<path d="M0 0 C2 1 2 1 2 1 Z " fill="#FDFCFE" transform="translate(30,86)"/>
<path d="M0 0 C2 1 2 1 2 1 Z " fill="#FDFCFE" transform="translate(165,85)"/>
<path d="M0 0 C2 1 2 1 2 1 Z " fill="#FDFCFF" transform="translate(91,85)"/>
<path d="M0 0 C2 1 2 1 2 1 Z " fill="#FDFDFE" transform="translate(32,85)"/>
<path d="M0 0 C2 1 2 1 2 1 Z " fill="#FDFDFF" transform="translate(0,85)"/>
<path d="M0 0 C2 1 2 1 2 1 Z " fill="#FDFCFE" transform="translate(163,84)"/>
<path d="M0 0 C2 1 2 1 2 1 Z " fill="#FDFCFF" transform="translate(89,84)"/>
<path d="M0 0 C2 1 2 1 2 1 Z " fill="#FDFCFE" transform="translate(34,84)"/>
<path d="M0 0 C2 1 2 1 2 1 Z " fill="#FDFCFF" transform="translate(2,84)"/>
<path d="M0 0 C2 1 2 1 2 1 Z " fill="#FDFCFE" transform="translate(161,83)"/>
<path d="M0 0 C2 1 2 1 2 1 Z " fill="#FDFCFF" transform="translate(87,83)"/>
<path d="M0 0 C2 1 2 1 2 1 Z " fill="#FDFDFE" transform="translate(36,83)"/>
<path d="M0 0 C2 1 2 1 2 1 Z " fill="#FDFDFF" transform="translate(4,83)"/>
<path d="M0 0 C2 1 2 1 2 1 Z " fill="#FDFCFE" transform="translate(159,82)"/>
<path d="M0 0 C2 1 2 1 2 1 Z " fill="#FDFCFF" transform="translate(85,82)"/>
<path d="M0 0 C2 1 2 1 2 1 Z " fill="#FDFCFE" transform="translate(38,82)"/>
<path d="M0 0 C2 1 2 1 2 1 Z " fill="#FDFCFF" transform="translate(6,82)"/>
<path d="M0 0 C2 1 2 1 2 1 Z " fill="#FDFCFE" transform="translate(157,81)"/>
<path d="M0 0 C2 1 2 1 2 1 Z " fill="#FDFCFF" transform="translate(83,81)"/>
<path d="M0 0 C2 1 2 1 2 1 Z " fill="#FDFDFE" transform="translate(40,81)"/>
<path d="M0 0 C2 1 2 1 2 1 Z " fill="#FDFDFF" transform="translate(8,81)"/>
<path d="M0 0 C2 1 2 1 2 1 Z " fill="#FDFCFE" transform="translate(155,80)"/>
<path d="M0 0 C2 1 2 1 2 1 Z " fill="#FDFCFF" transform="translate(81,80)"/>
<path d="M0 0 C2 1 2 1 2 1 Z " fill="#FDFCFE" transform="translate(42,80)"/>
<path d="M0 0 C2 1 2 1 2 1 Z " fill="#FDFCFF" transform="translate(10,80)"/>
<path d="M0 0 C2 1 2 1 2 1 Z " fill="#FDFCFE" transform="translate(153,79)"/>
<path d="M0 0 C2 1 2 1 2 1 Z " fill="#FDFCFF" transform="translate(79,79)"/>
<path d="M0 0 C2 1 2 1 2 1 Z " fill="#FDFDFE" transform="translate(44,79)"/>
<path d="M0 0 C2 1 2 1 2 1 Z " fill="#FDFDFF" transform="translate(12,79)"/>
<path d="M0 0 C2 1 2 1 2 1 Z " fill="#FDFCFE" transform="translate(151,78)"/>
<path d="M0 0 C2 1 2 1 2 1 Z " fill="#FDFCFF" transform="translate(77,78)"/>
<path d="M0 0 C2 1 2 1 2 1 Z " fill="#FDFDFE" transform="translate(46,78)"/>
<path d="M0 0 C2 1 2 1 2 1 Z " fill="#FDFCFF" transform="translate(14,78)"/>
<path d="M0 0 C2 1 2 1 2 1 Z " fill="#FDFCFE" transform="translate(149,77)"/>
<path d="M0 0 C2 1 2 1 2 1 Z " fill="#FDFCFE" transform="translate(75,77)"/>
<path d="M0 0 C2 1 2 1 2 1 Z " fill="#FDFDFE" transform="translate(48,77)"/>
<path d="M0 0 C2 1 2 1 2 1 Z " fill="#FDFDFF" transform="translate(16,77)"/>
<path d="M0 0 C2 1 2 1 2 1 Z " fill="#FDFCFE" transform="translate(147,76)"/>
<path d="M0 0 C2 1 2 1 2 1 Z " fill="#FDFCFF" transform="translate(73,76)"/>
<path d="M0 0 C2 1 2 1 2 1 Z " fill="#FDFDFE" transform="translate(50,76)"/>
<path d="M0 0 C2 1 2 1 2 1 Z " fill="#FDFCFF" transform="translate(18,76)"/>
<path d="M0 0 C2 1 2 1 2 1 Z " fill="#FDFCFE" transform="translate(145,75)"/>
<path d="M0 0 C2 1 2 1 2 1 Z " fill="#FDFCFE" transform="translate(71,75)"/>
<path d="M0 0 C2 1 2 1 2 1 Z " fill="#FDFDFE" transform="translate(52,75)"/>
<path d="M0 0 C2 1 2 1 2 1 Z " fill="#FDFDFF" transform="translate(20,75)"/>
<path d="M0 0 C2 1 2 1 2 1 Z " fill="#FDFCFE" transform="translate(143,74)"/>
<path d="M0 0 C2 1 2 1 2 1 Z " fill="#FDFCFE" transform="translate(69,74)"/>
<path d="M0 0 C2 1 2 1 2 1 Z " fill="#FDFDFE" transform="translate(54,74)"/>
<path d="M0 0 C2 1 2 1 2 1 Z " fill="#FDFCFF" transform="translate(22,74)"/>
<path d="M0 0 C2 1 2 1 2 1 Z " fill="#FDFCFE" transform="translate(141,73)"/>
<path d="M0 0 C2 1 2 1 2 1 Z " fill="#FDFCFE" transform="translate(67,73)"/>
<path d="M0 0 C2 1 2 1 2 1 Z " fill="#FDFDFE" transform="translate(56,73)"/>
<path d="M0 0 C2 1 2 1 2 1 Z " fill="#FDFDFF" transform="translate(24,73)"/>
<path d="M0 0 C2 1 2 1 2 1 Z " fill="#FDFCFE" transform="translate(139,72)"/>
<path d="M0 0 C2 1 2 1 2 1 Z " fill="#FDFCFE" transform="translate(65,72)"/>
<path d="M0 0 C2 1 2 1 2 1 Z " fill="#FDFDFE" transform="translate(58,72)"/>
<path d="M0 0 C2 1 2 1 2 1 Z " fill="#FDFCFF" transform="translate(26,72)"/>
<path d="M0 0 C2 1 2 1 2 1 Z " fill="#FDFCFE" transform="translate(137,71)"/>
<path d="M0 0 C2 1 2 1 2 1 Z " fill="#FEFDFE" transform="translate(63,71)"/>
<path d="M0 0 C2 1 2 1 2 1 Z " fill="#FDFDFE" transform="translate(60,71)"/>
<path d="M0 0 C2 1 2 1 2 1 Z " fill="#FDFDFF" transform="translate(28,71)"/>
<path d="M0 0 C2 1 2 1 2 1 Z " fill="#FDFDFF" transform="translate(135,70)"/>
<path d="M0 0 C2 1 2 1 2 1 Z " fill="#FDFCFF" transform="translate(30,70)"/>
<path d="M0 0 C2 1 2 1 2 1 Z " fill="#FDFCFE" transform="translate(133,69)"/>
<path d="M0 0 C2 1 2 1 2 1 Z " fill="#FDFDFF" transform="translate(32,69)"/>
<path d="M0 0 C2 1 2 1 2 1 Z " fill="#FDFDFF" transform="translate(131,68)"/>
<path d="M0 0 C2 1 2 1 2 1 Z " fill="#FDFCFF" transform="translate(34,68)"/>
<path d="M0 0 C2 1 2 1 2 1 Z " fill="#FDFCFE" transform="translate(129,67)"/>
<path d="M0 0 C2 1 2 1 2 1 Z " fill="#FDFDFF" transform="translate(36,67)"/>
<path d="M0 0 C2 1 2 1 2 1 Z " fill="#FDFDFF" transform="translate(127,66)"/>
<path d="M0 0 C2 1 2 1 2 1 Z " fill="#FDFCFF" transform="translate(38,66)"/>
<path d="M0 0 C2 1 2 1 2 1 Z " fill="#FDFCFE" transform="translate(125,65)"/>
<path d="M0 0 C2 1 2 1 2 1 Z " fill="#FDFDFF" transform="translate(40,65)"/>
<path d="M0 0 C2 1 2 1 2 1 Z " fill="#FDFDFF" transform="translate(123,64)"/>
<path d="M0 0 C2 1 2 1 2 1 Z " fill="#FDFDFF" transform="translate(42,64)"/>
<path d="M0 0 C2 1 2 1 2 1 Z " fill="#FDFCFE" transform="translate(121,63)"/>
<path d="M0 0 C2 1 2 1 2 1 Z " fill="#FDFDFF" transform="translate(44,63)"/>
<path d="M0 0 C2 1 2 1 2 1 Z " fill="#FDFDFF" transform="translate(119,62)"/>
<path d="M0 0 C2 1 2 1 2 1 Z " fill="#FDFDFF" transform="translate(46,62)"/>
<path d="M0 0 C2 1 2 1 2 1 Z " fill="#FDFCFE" transform="translate(117,61)"/>
<path d="M0 0 C2 1 2 1 2 1 Z " fill="#FDFDFF" transform="translate(48,61)"/>
<path d="M0 0 C2 1 2 1 2 1 Z " fill="#FDFDFF" transform="translate(115,60)"/>
<path d="M0 0 C2 1 2 1 2 1 Z " fill="#FDFDFF" transform="translate(50,60)"/>
<path d="M0 0 C2 1 2 1 2 1 Z " fill="#FDFCFE" transform="translate(113,59)"/>
<path d="M0 0 C2 1 2 1 2 1 Z " fill="#FDFDFF" transform="translate(52,59)"/>
<path d="M0 0 C2 1 2 1 2 1 Z " fill="#FDFDFF" transform="translate(111,58)"/>
<path d="M0 0 C2 1 2 1 2 1 Z " fill="#FDFDFF" transform="translate(54,58)"/>
<path d="M0 0 C2 1 2 1 2 1 Z " fill="#FDFCFE" transform="translate(109,57)"/>
<path d="M0 0 C2 1 2 1 2 1 Z " fill="#FDFDFE" transform="translate(56,57)"/>
<path d="M0 0 C2 1 2 1 2 1 Z " fill="#FDFDFF" transform="translate(107,56)"/>
<path d="M0 0 C2 1 2 1 2 1 Z " fill="#FDFDFF" transform="translate(58,56)"/>
<path d="M0 0 C2 1 2 1 2 1 Z " fill="#FDFCFF" transform="translate(105,55)"/>
<path d="M0 0 C2 1 2 1 2 1 Z " fill="#FDFDFE" transform="translate(60,55)"/>
<path d="M0 0 C2 1 2 1 2 1 Z " fill="#FDFDFF" transform="translate(103,54)"/>
<path d="M0 0 C2 1 2 1 2 1 Z " fill="#FDFDFE" transform="translate(62,54)"/>
<path d="M0 0 C2 1 2 1 2 1 Z " fill="#FDFCFF" transform="translate(101,53)"/>
<path d="M0 0 C2 1 2 1 2 1 Z " fill="#FDFCFE" transform="translate(64,53)"/>
<path d="M0 0 C2 1 2 1 2 1 Z " fill="#FDFDFF" transform="translate(99,52)"/>
<path d="M0 0 C2 1 2 1 2 1 Z " fill="#FDFDFE" transform="translate(66,52)"/>
<path d="M0 0 C2 1 2 1 2 1 Z " fill="#FDFCFF" transform="translate(97,51)"/>
<path d="M0 0 C2 1 2 1 2 1 Z " fill="#FDFCFE" transform="translate(68,51)"/>
<path d="M0 0 C2 1 2 1 2 1 Z " fill="#FDFDFF" transform="translate(95,50)"/>
<path d="M0 0 C2 1 2 1 2 1 Z " fill="#FDFDFE" transform="translate(70,50)"/>
<path d="M0 0 C2 1 2 1 2 1 Z " fill="#FDFDFF" transform="translate(93,49)"/>
<path d="M0 0 C2 1 2 1 2 1 Z " fill="#FDFCFE" transform="translate(72,49)"/>
<path d="M0 0 C2 1 2 1 2 1 Z " fill="#FDFDFF" transform="translate(91,48)"/>
<path d="M0 0 C2 1 2 1 2 1 Z " fill="#FDFDFE" transform="translate(74,48)"/>
<path d="M0 0 C2 1 2 1 2 1 Z " fill="#FDFDFF" transform="translate(89,47)"/>
<path d="M0 0 C2 1 2 1 2 1 Z " fill="#FDFCFE" transform="translate(76,47)"/>
<path d="M0 0 C2 1 2 1 2 1 Z " fill="#FDFDFF" transform="translate(87,46)"/>
<path d="M0 0 C2 1 2 1 2 1 Z " fill="#FDFDFE" transform="translate(78,46)"/>
<path d="M0 0 C2 1 2 1 2 1 Z " fill="#FDFDFF" transform="translate(85,45)"/>
<path d="M0 0 C2 1 2 1 2 1 Z " fill="#FDFCFE" transform="translate(80,45)"/>
<path d="M0 0 C2 1 2 1 2 1 Z " fill="#FDFCFE" transform="translate(164,38)"/>
<path d="M0 0 C2 1 2 1 2 1 Z " fill="#FDFCFF" transform="translate(1,38)"/>
<path d="M0 0 C2 1 2 1 2 1 Z " fill="#FDFCFE" transform="translate(162,37)"/>
<path d="M0 0 C2 1 2 1 2 1 Z " fill="#FDFCFF" transform="translate(3,37)"/>
<path d="M0 0 C2 1 2 1 2 1 Z " fill="#FDFCFE" transform="translate(160,36)"/>
<path d="M0 0 C2 1 2 1 2 1 Z " fill="#FDFCFF" transform="translate(5,36)"/>
<path d="M0 0 C2 1 2 1 2 1 Z " fill="#FDFCFE" transform="translate(158,35)"/>
<path d="M0 0 C2 1 2 1 2 1 Z " fill="#FDFCFF" transform="translate(7,35)"/>
<path d="M0 0 C2 1 2 1 2 1 Z " fill="#FDFCFE" transform="translate(156,34)"/>
<path d="M0 0 C2 1 2 1 2 1 Z " fill="#FDFCFF" transform="translate(9,34)"/>
<path d="M0 0 C2 1 2 1 2 1 Z " fill="#FDFCFE" transform="translate(154,33)"/>
<path d="M0 0 C2 1 2 1 2 1 Z " fill="#FDFCFF" transform="translate(11,33)"/>
<path d="M0 0 C2 1 2 1 2 1 Z " fill="#FDFCFF" transform="translate(152,32)"/>
<path d="M0 0 C2 1 2 1 2 1 Z " fill="#FDFCFF" transform="translate(13,32)"/>
<path d="M0 0 C2 1 2 1 2 1 Z " fill="#FDFCFE" transform="translate(150,31)"/>
<path d="M0 0 C2 1 2 1 2 1 Z " fill="#FDFCFF" transform="translate(15,31)"/>
<path d="M0 0 C2 1 2 1 2 1 Z " fill="#FDFCFF" transform="translate(148,30)"/>
<path d="M0 0 C2 1 2 1 2 1 Z " fill="#FDFCFF" transform="translate(17,30)"/>
<path d="M0 0 C2 1 2 1 2 1 Z " fill="#FDFCFF" transform="translate(146,29)"/>
<path d="M0 0 C2 1 2 1 2 1 Z " fill="#FDFCFF" transform="translate(19,29)"/>
<path d="M0 0 C2 1 2 1 2 1 Z " fill="#FDFCFF" transform="translate(144,28)"/>
<path d="M0 0 C2 1 2 1 2 1 Z " fill="#FDFCFF" transform="translate(21,28)"/>
<path d="M0 0 C2 1 2 1 2 1 Z " fill="#FDFCFE" transform="translate(142,27)"/>
<path d="M0 0 C2 1 2 1 2 1 Z " fill="#FDFCFF" transform="translate(23,27)"/>
<path d="M0 0 C2 1 2 1 2 1 Z " fill="#FDFCFF" transform="translate(140,26)"/>
<path d="M0 0 C2 1 2 1 2 1 Z " fill="#FDFCFF" transform="translate(25,26)"/>
<path d="M0 0 C2 1 2 1 2 1 Z " fill="#FDFCFF" transform="translate(138,25)"/>
<path d="M0 0 C2 1 2 1 2 1 Z " fill="#FDFCFF" transform="translate(27,25)"/>
<path d="M0 0 C2 1 2 1 2 1 Z " fill="#FDFCFF" transform="translate(136,24)"/>
<path d="M0 0 C2 1 2 1 2 1 Z " fill="#FDFCFF" transform="translate(29,24)"/>
<path d="M0 0 C2 1 2 1 2 1 Z " fill="#FDFCFF" transform="translate(134,23)"/>
<path d="M0 0 C2 1 2 1 2 1 Z " fill="#FDFCFF" transform="translate(31,23)"/>
<path d="M0 0 C2 1 2 1 2 1 Z " fill="#FDFCFF" transform="translate(132,22)"/>
<path d="M0 0 C2 1 2 1 2 1 Z " fill="#FDFCFF" transform="translate(33,22)"/>
<path d="M0 0 C2 1 2 1 2 1 Z " fill="#FDFCFF" transform="translate(130,21)"/>
<path d="M0 0 C2 1 2 1 2 1 Z " fill="#FDFCFF" transform="translate(35,21)"/>
<path d="M0 0 C2 1 2 1 2 1 Z " fill="#FDFCFF" transform="translate(128,20)"/>
<path d="M0 0 C2 1 2 1 2 1 Z " fill="#FDFCFF" transform="translate(37,20)"/>
<path d="M0 0 C2 1 2 1 2 1 Z " fill="#FDFCFF" transform="translate(126,19)"/>
<path d="M0 0 C2 1 2 1 2 1 Z " fill="#FEFDFF" transform="translate(39,19)"/>
<path d="M0 0 C2 1 2 1 2 1 Z " fill="#FDFCFF" transform="translate(124,18)"/>
<path d="M0 0 C2 1 2 1 2 1 Z " fill="#FDFCFE" transform="translate(41,18)"/>
<path d="M0 0 C2 1 2 1 2 1 Z " fill="#FDFCFF" transform="translate(122,17)"/>
<path d="M0 0 C2 1 2 1 2 1 Z " fill="#FEFDFF" transform="translate(43,17)"/>
<path d="M0 0 C2 1 2 1 2 1 Z " fill="#FDFCFF" transform="translate(120,16)"/>
<path d="M0 0 C2 1 2 1 2 1 Z " fill="#FDFCFF" transform="translate(45,16)"/>
<path d="M0 0 C2 1 2 1 2 1 Z " fill="#FDFCFF" transform="translate(118,15)"/>
<path d="M0 0 C2 1 2 1 2 1 Z " fill="#FEFDFF" transform="translate(47,15)"/>
<path d="M0 0 C2 1 2 1 2 1 Z " fill="#FDFCFF" transform="translate(116,14)"/>
<path d="M0 0 C2 1 2 1 2 1 Z " fill="#FDFCFF" transform="translate(49,14)"/>
<path d="M0 0 C2 1 2 1 2 1 Z " fill="#FDFCFF" transform="translate(114,13)"/>
<path d="M0 0 C2 1 2 1 2 1 Z " fill="#FEFDFE" transform="translate(51,13)"/>
<path d="M0 0 C2 1 2 1 2 1 Z " fill="#FDFCFF" transform="translate(112,12)"/>
<path d="M0 0 C2 1 2 1 2 1 Z " fill="#FDFCFE" transform="translate(53,12)"/>
<path d="M0 0 C2 1 2 1 2 1 Z " fill="#FDFCFF" transform="translate(110,11)"/>
<path d="M0 0 C2 1 2 1 2 1 Z " fill="#FEFDFF" transform="translate(55,11)"/>
<path d="M0 0 C2 1 2 1 2 1 Z " fill="#FDFCFF" transform="translate(108,10)"/>
<path d="M0 0 C2 1 2 1 2 1 Z " fill="#FDFCFE" transform="translate(57,10)"/>
<path d="M0 0 C2 1 2 1 2 1 Z " fill="#FDFCFF" transform="translate(106,9)"/>
<path d="M0 0 C2 1 2 1 2 1 Z " fill="#FEFDFF" transform="translate(59,9)"/>
<path d="M0 0 C2 1 2 1 2 1 Z " fill="#FDFCFF" transform="translate(104,8)"/>
<path d="M0 0 C2 1 2 1 2 1 Z " fill="#FEFDFE" transform="translate(61,8)"/>
<path d="M0 0 C2 1 2 1 2 1 Z " fill="#FDFCFF" transform="translate(102,7)"/>
<path d="M0 0 C2 1 2 1 2 1 Z " fill="#FEFDFE" transform="translate(63,7)"/>
<path d="M0 0 C2 1 2 1 2 1 Z " fill="#FEFDFF" transform="translate(100,6)"/>
<path d="M0 0 C2 1 2 1 2 1 Z " fill="#FEFDFE" transform="translate(65,6)"/>
<path d="M0 0 C2 1 2 1 2 1 Z " fill="#FDFCFF" transform="translate(98,5)"/>
<path d="M0 0 C2 1 2 1 2 1 Z " fill="#FEFDFE" transform="translate(67,5)"/>
<path d="M0 0 C2 1 2 1 2 1 Z " fill="#FEFDFF" transform="translate(96,4)"/>
<path d="M0 0 C2 1 2 1 2 1 Z " fill="#FEFDFE" transform="translate(69,4)"/>
<path d="M0 0 C2 1 2 1 2 1 Z " fill="#FDFCFF" transform="translate(94,3)"/>
<path d="M0 0 C2 1 2 1 2 1 Z " fill="#FEFDFE" transform="translate(71,3)"/>
<path d="M0 0 C2 1 2 1 2 1 Z " fill="#FEFDFF" transform="translate(92,2)"/>
<path d="M0 0 C2 1 2 1 2 1 Z " fill="#FEFDFE" transform="translate(73,2)"/>
<path d="M0 0 C2 1 2 1 2 1 Z " fill="#FDFCFF" transform="translate(90,1)"/>
<path d="M0 0 C2 1 2 1 2 1 Z " fill="#FEFDFE" transform="translate(75,1)"/>
<path d="M0 0 C2 1 2 1 2 1 Z " fill="#FEFDFF" transform="translate(88,0)"/>
<path d="M0 0 C2 1 2 1 2 1 Z " fill="#FEFDFE" transform="translate(77,0)"/>
<path d="" fill="#FEFEFF" transform="translate(0,0)"/>
<path d="" fill="#FDFCFE" transform="translate(0,0)"/>
<path d="" fill="#FDFCFF" transform="translate(0,0)"/>
<path d="" fill="#FEFEFF" transform="translate(0,0)"/>
<path d="" fill="#FDFCFF" transform="translate(0,0)"/>
<path d="" fill="#FDFCFF" transform="translate(0,0)"/>
<path d="" fill="#FDFCFF" transform="translate(0,0)"/>
<path d="" fill="#FDFCFF" transform="translate(0,0)"/>
<path d="" fill="#FDFCFF" transform="translate(0,0)"/>
<path d="" fill="#FDFCFF" transform="translate(0,0)"/>
<path d="" fill="#FDFCFF" transform="translate(0,0)"/>
<path d="" fill="#FDFCFF" transform="translate(0,0)"/>
<path d="" fill="#FDFCFF" transform="translate(0,0)"/>
<path d="" fill="#FDFCFF" transform="translate(0,0)"/>
<path d="" fill="#FDFCFE" transform="translate(0,0)"/>
<path d="" fill="#FDFCFE" transform="translate(0,0)"/>
<path d="" fill="#FEFEFF" transform="translate(0,0)"/>
<path d="" fill="#FDFCFE" transform="translate(0,0)"/>
<path d="" fill="#FDFCFF" transform="translate(0,0)"/>
</svg>
